<svg xmlns="http://www.w3.org/2000/svg" xmlns:xlink="http://www.w3.org/1999/xlink" preserveAspectRatio="xMidYMid meet" version="1.0" viewBox="-0.2 -1.0 166.4 251.4" zoomAndPan="magnify" style="fill: rgb(0, 0, 0);" original_string_length="5579" width="178.16170773333502px" height="269.2003825641051px"><g id="__id3_sud6ju655"><path d="M165.6,178.5C165.6,178.5,165.6,178.5,165.6,178.5c-2.7-11.2-17.6-10.1-26.4-8.2c-12,2.6-22.5,9.6-29.9,19.4 c-0.2,0.3-0.3,0.6-0.2,0.8c-7.9,7.1-13.7,15.9-17.1,25.8c0.1-3.3,0.1-6.6,0.1-9.9c0.2-0.1,0.4-0.3,0.5-0.7 c2.8-11.9,7.2-23.2,13.3-33.9c0.1-0.2,0.2-0.5,0.1-0.7c10.9-4.6,19.9-12.8,25.1-23.6c6.8-14,4.3-30.1,9.5-44.5 c0.3-0.9-0.9-1.9-1.7-1.3c-0.1,0.1-0.1,0.1-0.2,0.2c0,0-0.1,0-0.1-0.1c-1.8,1.6-3.5,3.2-5.4,4.6c-0.2,0.1-0.3,0.2-0.5,0.3 c-17.6,15.6-28.1,38-28.5,61.7c-0.1,0.3-0.1,0.6,0,0.8c0,0.1,0,0.1,0,0.2c-0.1,0-0.2,0.1-0.3,0.1c0,0,0,0-0.1,0c0,0.1,0,0.2-0.1,0.4 c0,0.5-0.2,0.9-0.3,1.3c0,0.1,0,0.1,0,0.2c0,0,0,0,0,0.1c-4.9,8.8-8.7,18-11.5,27.7c-0.5-12-1.9-24-4.2-35.9 c-1-5.3-2.3-10.6-3.8-15.8c-0.4-8.5,1.5-16.5,5.9-23.8c0.1,0,0.2,0,0.3,0c0.6-1,1.7-1.7,2.7-2.4c0,0,0,0,0,0 c8.2-6.9,10.8-18.1,13.3-28.3c0.9-3.7,1.8-7.4,3.3-10.9c1.7-4.2,4.4-7.1,6.6-10.9c1.7-3,2.5-7.4-1.4-9.2c-4.4-2.1-8.4,2.4-11,5.3 c-4.4,5-8,10.8-10.6,16.9c-5,11.7-6.5,24.4-4.4,36.9c0,0-0.1,0.1-0.1,0.1c-0.1,0.1-0.1,0.2-0.2,0.4c-0.2,0.1-0.4,0.2-0.5,0.3 c0,0,0,0,0,0c0,0.1,0,0.1,0,0.1c0,0,0,0,0,0c0,0,0,0.1,0,0.1c0,0.2-0.1,0.3-0.2,0.4c0,0.3-0.2,0.5-0.3,0.7c0,0,0,0.1,0,0.1 c-2.9,5.3-4.8,10.9-5.4,16.8c-1.9-6.3-3.8-12.7-5.7-19.1c-4-13.9-6.4-28.5-2.2-42.5c0.2,0,0.3-0.1,0.5-0.3 c12.7-12,9.4-29.9,11.2-45.6c0.5-4.5,1.6-9,3.2-13.3c1.5-3.9,4.5-7.7,5.4-11.8c0.8-3.7-0.7-7.3-4.8-7.8c-5.4-0.7-10.3,4.4-13.3,8.2 c-4.2,5.2-7,11.5-8.5,17.9c-4.1,16.7,0.3,33.8,4.7,50c-1.6,4.7-2.5,9.4-2.8,14.1c-1.1-3.3-2.7-6.3-4.8-9.2c-0.3-0.1-0.5-0.3-0.7-0.6 c-0.5-0.7-0.8-1.5-1-2.3C51.6,55.3,32.9,25.4,2.7,33.4C2,33.5,1.5,34.5,2,35.1c9.9,12.8,19.1,27.3,30.7,38.6 c7.9,7.7,19.4,12.7,29.8,8.1c3.4,4.5,5.6,9.6,6.3,15.2c0.1,0.5,0.3,0.8,0.7,0.9c0.8,16.8,7.6,33.5,12.2,49.8c0,0.8,0.1,1.6,0.2,2.3 c0.1,0.5,0.4,0.8,0.7,1c0.4,1.5,0.8,3,1.1,4.6c0.2,1,0.5,2.1,0.7,3.2c-5.3-9.2-11.2-18.8-17.7-27.8c0,0,0-0.1,0-0.1 c-0.2-0.2-0.4-0.4-0.5-0.7c-0.1-0.2-0.2-0.3-0.4-0.5c-0.1-0.1-0.2-0.2-0.2-0.3c0,0,0,0,0,0c0,0,0,0,0,0c-0.1-0.1-0.2-0.2-0.2-0.3 c-0.1-0.1-0.1-0.2-0.1-0.3c-0.1,0-0.1-0.1-0.2-0.1c-15.9-21-36-38.2-64-38.6c-0.8,0-1.3,0.7-1.1,1.5c7,29,37.9,38.6,64.3,39.8 c6.4,8.7,12.1,18,17.3,26.9c-5.5-4.5-12-7.3-19.3-8.2c-0.1,0-0.1,0-0.2,0c0.1-0.4,0-0.9-0.1-1.3c0.1-0.2,0.1-0.3,0.1-0.5 c-0.2-4.2-3.8-7.6-8.1-7.8c-4.1-0.1-7.1,3.2-7.5,7.1c-0.4,3.9,1.9,7.7,6,8.4c3.6,0.6,7.1-1.2,8.8-4.3c0.2,0.4,0.5,0.7,1,0.8 c8.8,1.1,16.5,5.4,22.2,12.1c0.7,1.2,1.3,2.5,1.8,3.9c0,0,0,0.1,0,0.1c0.6,3.4,1.1,6.9,1.6,10.4c-2.1-5.5-4.4-11.2-9.9-13.9 c-4.4-2.1-9.9-0.9-12.3,3.3c-0.1-0.1-0.2-0.1-0.3-0.2c-3.9-1.4-8.3,0.8-9.9,4.6c-1.6,3.8,0.7,7.8,4.3,9.3c8.1,3.4,13.3-7.2,7.8-12.5 c3.4-6.3,11.4-2.4,14.5,2.3c2.7,4,3.9,8.9,5.8,13.3c0.2,0.4,0.5,0.5,0.8,0.6c1.3,13.1,1.5,26.4,0.7,39.5c-1.9-5.2-5.2-9.8-9.8-13.3 c-0.3-0.2-0.5-0.3-0.8-0.2c-0.1-0.4-0.5-0.7-1-0.7c0,0,0,0-0.1,0c-12.7-19.3-33.4-32.1-56.5-34.8c-0.9-0.1-1.4,1-1,1.7 c6,10.5,13,22.9,22.7,30.4c9.7,7.5,22.2,6.6,33.6,5.1c0.1,0.1,0.1,0.2,0.2,0.3c0.4-0.1,0.8-0.1,1.1,0.1c0,0,0.1,0.1,0.1,0.1 c0.5,0.1,1,0.4,1.4,0.7c0,0,0,0,0,0c5.6,4.7,8.9,11.4,9.3,18.8c-0.5,4.9-1.1,9.9-1.9,14.8c-0.2,1.5,2,2.1,2.2,0.6 c0.8-4.9,1.4-9.8,1.9-14.7c0.1-0.1,0.1-0.3,0.1-0.5c0-0.1,0-0.2,0-0.2c0.2-2.1,0.4-4.2,0.5-6.3c0.2-0.1,0.3-0.3,0.4-0.6 c2.2-13.4,8.7-25.3,18.9-34.4c0.3-0.3,0.4-0.6,0.3-0.9c18.6,5.1,33.6-12.3,52-9.9c0.8,0.1,1.1-0.5,1.1-1.1c0,0,0.1,0,0.1,0 C165.6,180.6,166.2,179.3,165.6,178.5z M131,142.2c-4.2,11.6-12.9,20.9-24,26.1c11.3-19.6,21.2-39.8,29.9-60.7 C134.2,119.1,135,131.1,131,142.2z M134,108.9c-8,18.9-17.1,37.4-27.2,55.2C108.3,142.9,118.1,123,134,108.9z M114,71.2 c-0.2,0.2-0.4,0.3-0.6,0.4c-1.1,1.6-3,3.8-3.6,4.7c-1,1.7-1.8,3.5-2.5,5.3c-1.9,4.7-3,9.7-4.2,14.6c-1.9,7.9-4.4,16.1-10,21.9 c1.5-17.4,7.9-34,18.3-48c0-0.1,0-0.3,0.1-0.4c0.9-1.1,1.9-2.2,2.8-3.4c0.2-0.2,0.3-0.5,0.3-0.7C116.6,67.1,115.4,69.6,114,71.2z M93.1,91.1c1.6-5,3.8-9.9,6.6-14.4c1.5-2.5,3.2-4.8,5.1-7c0.8-0.9,1.6-1.8,2.4-2.7c0.5-0.7,1-1.1,1.5-1.4c0.1-0.1,0.2-0.1,0.3-0.2 c1-0.5,2.3-0.9,3.5-0.7c-1,1.2-2,2.4-3,3.5c-0.2,0.2-0.3,0.5-0.3,0.8c-10.7,14.5-17.1,31.6-18.5,49.7 C89.6,109.5,90.3,100.1,93.1,91.1z M90.5,5.2c1.8,0.9,2.2,2,1.1,3.5c-0.2,1.6-1.6,3.2-2.3,4.7c-1.1,2.1-2,4.3-2.8,6.6 c-2,5.7-3,11.5-3.4,17.5c-0.7,11.9,0.3,25.1-6.5,35.2C72.4,49.2,77.4,25.1,90.5,5.2z M68.6,36.2C69,29.6,70.6,23,73.5,17 c2.3-4.6,7.1-13,12.7-14c1.1-0.7,2-0.6,2.8,0.3C74.8,24.4,69.8,50.2,74.7,75c0,0-0.1,0.1-0.1,0.1C71.2,62.5,67.8,49.5,68.6,36.2z M59.9,77C39.6,66.3,27.6,44.5,6.6,34.9C32.7,30.4,49.3,56.3,59.9,77z M29.2,66.4c-7.8-9.3-15.1-19.2-22.4-28.9 c21,10,32.9,32.5,54,42.5C48.8,84.8,36.9,75.5,29.2,66.4z M3.8,95.9c17.1,13.4,35.7,24.5,55.6,33C36.7,126.9,12,118.4,3.8,95.9z M3.3,92.6c24.7,1.1,43,15.9,57.6,34.4C40.2,118.3,20.9,106.7,3.3,92.6z M59.6,150.2c-2.1,5.6-11.1,4.3-10.7-2 c0.2-2.7,2.1-5.3,5-5.3c2.9,0,5.7,2.3,6,5.3c-0.2,0.3-0.2,0.6-0.1,0.9c0.1,0.3,0.1,0.5,0.1,0.7C59.7,149.9,59.6,150,59.6,150.2z M60.8,180c-2.5-1.1-4.2-3.8-3-6.5c1.2-2.7,4.3-4.1,7-3.1c0.1,0,0.2,0,0.4,0c0.1,0.1,0.2,0.2,0.3,0.3 C70.4,174.2,66.7,182.4,60.8,180z M43,205.5c-7.6-6.6-13.4-15.9-18.5-24.7c15.4,11.4,31.5,21.7,48.3,31 C62.4,212.9,51.4,212.9,43,205.5z M26.7,179.5c19.1,3.6,36.1,14.5,47.4,30.3C57.7,200.7,41.8,190.6,26.7,179.5z M114.9,189.7 c12.4-8.8,27.4-12.6,42.3-10.7C142.6,180.2,129.7,191.8,114.9,189.7z M114.6,187.1c5.5-6,12.4-10.5,20.2-13.1 c7.5-2.5,24.1-5.7,28,3.7C146.2,174,128.8,177.4,114.6,187.1z" style="fill: rgb(255, 255, 255);"/></g></svg>