<svg xmlns="http://www.w3.org/2000/svg" xmlns:xlink="http://www.w3.org/1999/xlink" preserveAspectRatio="xMidYMid meet" version="1.0" viewBox="16.7 16.0 480.0 480.0" zoomAndPan="magnify" style="fill: rgb(228, 226, 221);" original_string_length="987" width="61.501864438388644px" height="61.501864438388644px"><g id="__id6_sud6ju655"><circle cx="256.711" cy="256" r="240" style="fill: inherit;"/></g><g id="__id7_sud6ju655" style="fill: rgb(255, 255, 255);"><path d="M255.99953,247.14662l141.61106-78.1707c.6855-.38431,1.40463-.65109,2.13459-.81017-2.14048-1.38781-4.68758-2.20207-7.42865-2.20207H119.68347c-2.36869,0-4.59638,.6027-6.53936,1.66183l142.85542,79.52112Z" style="fill: inherit;"/><path d="M405.16477,182.44775l-145.3872,80.28832c-1.17335,.65769-2.47553,.98669-3.77741,.98669-1.30156,0-2.60311-.32869-3.77615-.98607L106,181.3272v151.02566c0,7.55717,6.1263,13.68347,13.68347,13.68347H392.31653c7.55717,0,13.68347-6.1263,13.68347-13.68347V181.89722c-.26482,.19702-.53954,.38478-.83523,.55054Z" style="fill: inherit;"/></g></svg>