<svg xmlns="http://www.w3.org/2000/svg" xmlns:xlink="http://www.w3.org/1999/xlink" preserveAspectRatio="xMidYMid meet" version="1.0" viewBox="82.5 -41.7 383.0 822.4" zoomAndPan="magnify" style="fill: rgb(0, 0, 0);" original_string_length="12389" width="185.78216857011836px" height="398.72830956824356px"><g id="__id1_sud6ju655" style="fill: rgb(255, 255, 255);"><path d="m148.73 574.76s4.7536 14.854 1.7825 21.39c-2.9701 6.5384 247.2 3.5661 247.2 3.5661s-1.1898-16.638 1.1876-20.797c2.3774-4.1588 0.59378-2.97 0.59378-2.97l-250.76-1.1887z" style="fill: inherit;"/><path d="m176.06 549.81s46.349-127.16 46.349-131.32c0-4.161 5.9424-3.565 5.9424-3.565l-31.493 135.48-20.798-0.5938z" style="fill: inherit;"/><path d="M214.09 406.01L224.19 400.06 330.56 401.85 340.06 405.41 341.25 400.06 331.15 396.5 225.97 395.31 212.9 398.28z" style="fill: inherit;"/><path d="m230.13 388.78l13.073 1.7813 26.74-334.54-5.3474 3.5661s-10.102 128.94-10.102 134.29c0 5.3475-23.176 193.12-24.363 194.9z" style="fill: inherit;"/><path d="m277.67 9.9632l8.9135 0.5938s-1.7814-43.972-2.3774-48.132c-0.59378-4.1588-2.969-2.3763-2.969-2.3763l-3.5672 49.914z" style="fill: inherit;"/><path d="m265.79 26.302c-1.305 1.215 13.072-26.738 31.493-4.1588l-0.1504 5.6471s-14.406-17.236-31.343-1.4884z" style="fill: inherit;"/><path d="m260.88 34.771l0.2975 8.0212 7.2792-6.2387h25.995l0.8923 14.261s4.903-7.7248 6.0927-8.6161c1.1876-0.89236 1.338-7.2792 1.338-7.2792l-5.7942-5.6438-29.86 0.2963-6.2409 5.1993z" style="fill: inherit;"/><path d="m279.45 56.016l4.7537-1.1898s-3.565 310.18 8.9135 333.95h-32.087s27.928-326.82 18.42-332.76z" style="fill: inherit;"/><path d="m220.63 550.4l7.7237 0.5928s23.767-106.96 23.175-105.77c-0.59381 1.1887-5.9424-0.59277-5.9424-0.59277s-23.173 104.58-24.956 105.77z" style="fill: inherit;"/><path d="m299.66 447.01c1.7836 0 5.9424 1.1876 5.9424 1.1876s33.87 93.291 35.654 99.233c1.7814 5.9434 1.7814 4.1609 1.7814 4.1609l-17.231 0.5938-26.147-105.18z" style="fill: inherit;"/><path d="m331.15 417.3c0 1.7814 41.594 133.1 41.594 133.1l-8.9135 1.7825s-43.378-133.7-45.162-133.7c-1.7814 0 12.481-1.1887 12.481-1.1887z" style="fill: inherit;"/><path d="m304.41 388.78h17.825s-27.928-318.5-27.928-320.88c0-2.3752 8.9135 319.09 10.103 320.88z" style="fill: inherit;"/><path d="m219.14 407.79s2.3785 2.6748 2.081 4.1598c-0.29854 1.4862 110.82 1.7824 110.82 1.7824s1.1876-3.2686 2.0799-3.8613c0.89127-0.59488-114.98-2.081-114.98-2.081z" style="fill: inherit;"/><path d="m150.21 551.89c0.89015 0 248.98 1.7836 248.98 1.7836s-2.3774 3.8624-2.3774 6.2387c0 2.3796-239.47-0.59271-240.36 1.1898-0.89235 1.7814-6.2387-9.212-6.2387-9.212z" style="fill: inherit;"/><path d="m147.83 602.1c-0.29524 0.8924-65.363 95.372-65.363 95.372s7.4274 6.8347 8.3186 6.5372c0.89124-0.29742 44.568-70.712 46.648-71.009 2.0788-0.29748 15.152-24.958 14.261-26.443-0.89235-1.4861-3.8646-4.4573-3.8646-4.4573z" style="fill: inherit;"/><path d="m158.23 760.76c0-1.1898 16.341-52.589 45.457-73.091 29.116-20.5 52.589-24.066 55.263-24.36 2.6738-0.29742 27.632-0.29852 38.921 2.0778 11.289 2.3785 47.241 22.879 49.915 26.444 2.6737 3.5649 18.719 26.145 22.58 31.791 3.8635 5.6449 10.994 27.632 12.777 39.515 1.7814 11.884 2.6737 17.53 2.6737 17.53s-5.0511-43.675-1.1898-45.756c3.8646-2.08 9.2121-4.1588 9.2121-4.1588s-20.501-38.92-57.045-67.441c-36.544-28.524-156.28-35.358-180.94 97.153l2.3763 0.2963z" style="fill: inherit;"/><path d="m403.05 608.04s61.206 92.103 61.8 93.887c0.59381 1.7825-13.668 8.616-13.668 8.616l-51.398-101.61 3.2664-0.8913z" style="fill: inherit;"/><path d="m151.77 634.63c-1.1152 1.5618-7.5767 12.478-7.5767 12.478l-6.2398-9.8036 13.816-2.6748z" style="fill: inherit;"/><path d="m119.24 667.39c0.66843-0.22284 10.92 0.22278 10.92 0.22278l7.13-12.256-18.05 12.033z" style="fill: inherit;"/><path d="m115 673.18l10.919 0.8923-8.2451 11.364-3.1205-11.587c0.001106 0 0.66953-1.114 0.44672-0.6695z" style="fill: inherit;"/><path d="M158.9 665.38L166.7 654.24 150.21 652.68z" style="fill: inherit;"/><path d="M154.67 647.56L170.71 648.45 176.95 637.08z" style="fill: inherit;"/><path d="M158.23 633.07L148.65 645.11 172.27 634.85z" style="fill: inherit;"/><path d="M153.55 676.3L145.53 687.89 125.48 688.34z" style="fill: inherit;"/><path d="M141.97 693.68L133.5 705.49 124.14 693.24z" style="fill: inherit;"/><path d="M118.57 695.02L127.93 707.5 100.74 702.6z" style="fill: inherit;"/><path d="M109.21 681.65L98.07 697.02 114.34 689z" style="fill: inherit;"/><path d="M144.86 656.25L136.4 667.61 153.11 667.61z" style="fill: inherit;"/><path d="m231.66 425.73c0.78041 0.8913 3.9008 5.3485 3.9008 5.3485l1.2249-9.5808-5.1258 4.2323z" style="fill: inherit;"/><path d="m226.42 418.26l4.1236 5.2366 5.905-5.5713-10.25-1.8945s-4.2345 16.935-3.8997 17.048c0.33476 0.10974 10.361 0.33368 10.361 0.33368l-3.2302-6.017-5.2366 2.2292 2.227-11.364z" style="fill: inherit;"/><path d="M242.8 417.26L252.72 417.93 247.14 423.5z" style="fill: inherit;"/><path d="M246.14 426.95L239.79 433.08 248.93 433.08z" style="fill: inherit;"/><path d="M239.57 419.94L238.45 430.63 244.25 425.73z" style="fill: inherit;"/><path d="m253.49 421.27c0 0.33484-0.89124 9.1364-0.89124 9.1364l-4.0106-4.6801 4.9019-4.4563z" style="fill: inherit;"/><path d="M257.84 420.49L255.94 431.08 263.19 426.06z" style="fill: inherit;"/><path d="M260.29 417.82L273.32 418.15 266.42 424.17z" style="fill: inherit;"/><path d="m265.53 427.07c-0.44562 0.33472-7.3538 5.905-7.3538 5.905l14.037 0.5576-6.6833-6.7941v0.33148z" style="fill: inherit;"/><path d="M268.65 425.5L275 432.08 275.55 419.27z" style="fill: inherit;"/><path d="M278 419.82L277.67 432.64 284.24 426.51z" style="fill: inherit;"/><path d="M280.12 434.08L287.14 427.96 295.16 433.97z" style="fill: inherit;"/><path d="M295.83 421.05L295.83 430.97 290.04 425.95z" style="fill: inherit;"/><path d="M307.64 447.34L318.67 454.03 318.56 446.9z" style="fill: inherit;"/><path d="M269.95 39.972L293.42 39.823 282.57 53.192z" style="fill: inherit;"/><path d="m302.04 44.725c-0.44562 0.74304-6.5362 10.696-6.5362 10.696l0.742 22.58 1.6332-14.112 3.419-4.6055 0.742-14.558z" style="fill: inherit;"/><path d="m261.78 44.725s6.2387 7.7259 5.9413 9.0617c-0.29746 1.3369-4.1577 3.8624-4.1577 3.8624l-2.2303-0.5949 0.4467-12.329z" style="fill: inherit;"/><path d="m254.35 480.14c0.44562 0 44.122 0.8913 44.122 0.8913l9.9507 67.74 10.101-0.1481-19.757-74.277-44.714 2.9711 0.2964 2.8229z" style="fill: inherit;"/><path d="m252.86 477.46c0 0.44562-4.7559 57.64-10.994 70.86l-5.9435 0.1504 15.45-71.01h1.4872v-0.001099z" style="fill: inherit;"/><path d="M255.54 457.26L254.05 470.78 296.54 471.67 297.87 458.74 296.69 458.6 294.76 467.81 259.1 467.66 257.76 457.85 279.45 457.56 287.92 457.7 255.39 454.58z" style="fill: inherit;"/><path d="m305.75 451.32c1.1876 0.44568 13.666 7.5756 13.666 7.5756s-7.8719 7.1322-8.1693 7.5767c-0.29855 0.44562-5.4967-15.152-5.4967-15.152z" style="fill: inherit;"/><path d="M310.95 471.67L321.05 463.5 322.98 472.56 310.8 472.56z" style="fill: inherit;"/><path d="M342.29 526.45L354.55 535.47 346.64 539.15z" style="fill: inherit;"/><path d="m314.66 476.2c0.7804 0.22168 9.2461 0.22168 9.2461 0.22168l2.7868 8.5798-12.033-8.8015z" style="fill: inherit;"/><path d="m232.99 458.48c0.11195-0.33478 12.144-7.243 12.144-7.243l-3.3421 16.156-8.8016-8.9135z" style="fill: inherit;"/><path d="M234.33 445.78L232.66 453.92 244.02 446.34z" style="fill: inherit;"/><path d="M230.21 446.9L219.74 445.34 227.98 453.92z" style="fill: inherit;"/><path d="m218.06 451.24c0.55866 0.44562 8.1342 6.7974 8.1342 6.7974l-11.699 7.4647 3.565-14.262z" style="fill: inherit;"/><path d="M231.1 462.16L228.2 471.52 240.46 472.3z" style="fill: inherit;"/><path d="M238.45 480.32L224.42 489.57 234.44 498.82z" style="fill: inherit;"/><path d="M231.99 512.08L215.28 521.54 227.09 533.24z" style="fill: inherit;"/><path d="m212.49 526.67c-0.33366 0.44458-8.0223 21.727-8.0223 21.727l16.824-9.3602-8.8016-12.367z" style="fill: inherit;"/><path d="M221.63 494.03L215.61 515.2 228.43 508.18 230.32 501.49z" style="fill: inherit;"/><path d="m225.64 464.39c-0.11086 0.33478-1.8944 8.4679-1.8944 8.4679l-11.143-1.5608 13.037-6.9071z" style="fill: inherit;"/><path d="m202.43 634.56l-4.5737-7.2617c-0.6366-1.238-1.9504-2.0986-3.4848-2.0986-2.1524 0-3.8997 1.6794-3.8997 3.7516 0 0.77704 0.24477 1.4982 0.66515 2.0964 0.11743 0.16577 0.25134 0.3183 0.39293 0.46429l4.8085 6.6119 6.0916-3.5639z" style="fill: inherit;"/><path d="m211.65 630.57l-3.8339-6.8785c-0.52135-1.1646-1.6925-2.0251-3.1182-2.1162-2.0031-0.12628-3.7241 1.3007-3.8438 3.1841-0.044998 0.70789 0.14049 1.3774 0.49939 1.9471 0.096603 0.15698 0.21405 0.30402 0.33807 0.44342l4.0885 6.3035 5.8699-2.8834z" style="fill: inherit;"/><path d="m214.61 630.1l7.2046-2.2281s-2.9701-8.3922-6.759-6.1652c0 0-3.9381 2.6748-0.52025 8.2451 3.4179 5.5703 0.074646 0.14819 0.074646 0.14819z" style="fill: inherit;"/><path d="m178.29 648c-0.008789 0.26672 5.7195-3.5661 5.7195-3.5661s-5.5703-0.74304-5.7195 3.5661z" style="fill: inherit;"/><path d="m186.68 642.8c0.59491-0.51923 6.1652-3.7867 6.1652-3.7867l-1.9317-3.1204s-7.13-2.4498-6.4626 3.7878l2.2292 3.1194z" style="fill: inherit;"/><path d="m224.42 627.06l7.4998-1.338-0.2975-2.081s-5.0511-4.307-7.4274 0.96698l0.225 2.452z" style="fill: inherit;"/><path d="m234.81 624.75l7.4285-1.338s-3.7889-3.6385-7.4285 1.338z" style="fill: inherit;"/><path d="m213.2 473.9c1.4861 0.44562 8.4668 1.7814 8.4668 1.7814l-2.0799 8.0223-8.1694-7.1288 1.7825-2.6749z" style="fill: inherit;"/><path d="m211.12 481.47c-0.69916 2.0964 6.9829 7.5778 6.9829 7.5778l-10.102 4.9019s3.2686-12.924 3.1193-12.48z" style="fill: inherit;"/><path d="m205.47 503.16c0.5938 0 8.9135 0.74414 8.9135 0.74414l2.2292-9.9529-11.143 6.2399 0.1482 2.3762 7.4285 5.1993-3.1205 9.2099-6.3869-9.9519 4.0106 18.718-11.437 14.261 9.357-36.844z" style="fill: inherit;"/><path d="M302.85 434.31L312.88 433.86 306.86 428.51z" style="fill: inherit;"/><path d="M147.32 628.17L183.86 629.28 201.02 602.99 180.52 622.38z" style="fill: inherit;"/><path d="m316.67 625.27l7.3549 2.227s-0.22278-8.244-7.3549-2.227z" style="fill: inherit;"/><path d="m370.59 639.98c0.44565 0.89124 5.7942 10.918 5.7942 10.918l18.273-0.6684-15.6-2.8977-8.4668-7.3516z" style="fill: inherit;"/><path d="m380.4 656.25c0.89014 1.338 7.1299 11.364 7.1299 11.364l8.9135-10.696-8.9135 4.4573-7.1299-5.1258z" style="fill: inherit;"/><path d="m392.88 677.86c0.66846 1.1141 7.5756 12.256 7.5756 12.256l10.249-0.2228-8.9113-3.3432-8.9135-8.6897z" style="fill: inherit;"/><path d="m326.92 629.06l41.67 22.286s-34.094-28.746-37.66-28.524c-3.5649 0.22278-4.2334 4.903-4.2334 5.5714" style="fill: inherit;"/><path d="M317.11 483.78L327.59 490.68 321.12 498.26z" style="fill: inherit;"/><path d="M329.37 495.59L322.91 504.94 332.49 508.73z" style="fill: inherit;"/><path d="M331.15 522.77L340.29 533.24 335.61 537.7z" style="fill: inherit;"/><path d="M324.46 428.29L320.45 433.42 327.14 434.08z" style="fill: inherit;"/><path d="m241.35 380.61c1.5597 1.3357 6.2398 5.5703 6.2398 5.5703l12.255-12.924-5.792-8.244-12.924 9.5809 0.2217 6.017z" style="fill: inherit;"/><path d="m244.69 354.98c0.66844 1.1141 5.3486 9.1363 5.3486 9.1363l-8.2451 5.5703 2.8965-14.707z" style="fill: inherit;"/><path d="m244.25 342.95c0.66844 1.3369 8.468 12.256 8.468 12.256l10.249-10.473-7.5756-11.142-11.142 9.3591z" style="fill: inherit;"/><path d="M245.58 337.82L252.27 330.24 245.58 321.56z" style="fill: inherit;"/><path d="M246.25 311.75L256.72 304.4 248.48 294.37z" style="fill: inherit;"/><path d="M250.04 271.2L247.59 286.57 259.4 278.55z" style="fill: inherit;"/><path d="M250.49 262.73L261.85 253.59 252.49 244.01 250.04 263.84z" style="fill: inherit;"/><path d="M252.94 237.99L253.16 239.11 264.97 229.97 254.05 220.39z" style="fill: inherit;"/><path d="M256.5 196.55L254.5 215.71 264.97 208.13z" style="fill: inherit;"/><path d="M257.39 194.1L266.31 186.52 257.84 178.05z" style="fill: inherit;"/><path d="M258.95 174.49L267.64 168.47 259.62 159.56z" style="fill: inherit;"/><path d="M260.07 156.88L268.76 149.98 260.96 140.84z" style="fill: inherit;"/><path d="M261.4 139.06L268.76 134.15 262.52 125.24z" style="fill: inherit;"/><path d="M263.19 122.79L270.32 117.22 264.52 111.87z" style="fill: inherit;"/><path d="m264.3 108.53l6.2398-4.6801s-4.6812-7.13-4.6812-6.2398c-0.001099 0.89236-1.5586 10.92-1.5586 10.92z" style="fill: inherit;"/><path d="M264.97 94.045L271.88 90.48 265.86 83.572z" style="fill: inherit;"/><path d="M266.98 82.234L272.55 78 266.98 71.984z" style="fill: inherit;"/><path d="M268.31 69.534L272.32 67.083 269.43 62.18z" style="fill: inherit;"/><path d="m251.53 321.63c0.89233 0.59381 3.8635 6.8325 3.8635 6.8325l9.5074-10.993-8.0223-0.5938-4.7537-6.2397-0.5949 10.994z" style="fill: inherit;"/><path d="M253.31 294.3L258.66 300.83 265.79 294.59 259.84 294 254.79 285.98 252.72 286.57z" style="fill: inherit;"/><path d="M255.09 269.64L261.33 275.58 267.27 268.74 260.14 268.15 258.06 259.83 255.09 261.61z" style="fill: inherit;"/><path d="M257.47 244.08L264.6 251.22 268.76 248.84 262.82 244.68 267.27 233.09 257.17 240.52z" style="fill: inherit;"/><path d="M266.09 227.15L258.66 221.8 258.95 217.64 267.87 210.22 264.9 217.94z" style="fill: inherit;"/><path d="m424.48 734.02c-154.32-255.8-305.01-0.00769-302.79-2.6738 154.48-185.52 251.45-58.426 285.19 2.6738h17.594z" style="fill: inherit;"/></g></svg>